0
SECTION
2
HEADER
9
$INSUNITS
70
4
9
$ACADVER
1
AC1014
9
$HANDSEED
5
FFFF
0
ENDSEC
0
SECTION
2
TABLES
0
TABLE
2
VPORT
5
8
100
AcDbSymbolTable
0
ENDTAB
0
TABLE
2
LTYPE
5
5
100
AcDbSymbolTable
0
LTYPE
5
14
100
AcDbSymbolTableRecord
100
AcDbLinetypeTableRecord
2
BYBLOCK
70
0
0
LTYPE
5
15
100
AcDbSymbolTableRecord
100
AcDbLinetypeTableRecord
2
BYLAYER
70
0
0
ENDTAB
0
TABLE
2
LAYER
5
2
100
AcDbSymbolTable
70
2
0
LAYER
5
50
100
AcDbSymbolTableRecord
100
AcDbLayerTableRecord
2
0
70
0
6
CONTINUOUS
0
ENDTAB
0
TABLE
2
STYLE
5
3
100
AcDbSymbolTable
70
1
0
STYLE
5
11
100
AcDbSymbolTableRecord
100
AcDbTextStyleTableRecord
2
STANDARD
70
0
0
ENDTAB
0
TABLE
2
VIEW
5
6
100
AcDbSymbolTable
70
0
0
ENDTAB
0
TABLE
2
UCS
5
7
100
AcDbSymbolTable
70
0
0
ENDTAB
0
TABLE
2
APPID
5
9
100
AcDbSymbolTable
70
2
0
APPID
5
12
100
AcDbSymbolTableRecord
100
AcDbRegAppTableRecord
2
ACAD
70
0
0
ENDTAB
0
TABLE
2
DIMSTYLE
5
A
100
AcDbSymbolTable
70
1
0
ENDTAB
0
TABLE
2
BLOCK_RECORD
5
1
100
AcDbSymbolTable
70
1
0
BLOCK_RECORD
5
1F
100
AcDbSymbolTableRecord
100
AcDbBlockTableRecord
2
*MODEL_SPACE
0
BLOCK_RECORD
5
1B
100
AcDbSymbolTableRecord
100
AcDbBlockTableRecord
2
*PAPER_SPACE
0
ENDTAB
0
ENDSEC
0
SECTION
2
BLOCKS
0
BLOCK
5
20
100
AcDbEntity
100
AcDbBlockBegin
2
*MODEL_SPACE
0
ENDBLK
5
21
100
AcDbEntity
100
AcDbBlockEnd
0
BLOCK
5
1C
100
AcDbEntity
100
AcDbBlockBegin
2
*PAPER_SPACE
0
ENDBLK
5
1D
100
AcDbEntity
100
AcDbBlockEnd
0
ENDSEC
0
SECTION
2
ENTITIES
0
LWPOLYLINE
5
100
100
AcDbEntity
8
0
100
AcDbPolyline
90
4
70
1
43
0.0
10
91.000000000000014
20
-59.999999999999986
10
-91
20
-59.999999999999986
10
-90.999999999999972
20
60.000000000000014
10
91
20
60.000000000000007
0
LWPOLYLINE
5
101
100
AcDbEntity
8
0
100
AcDbPolyline
90
4
70
1
43
0.0
10
75
20
50.000000000000007
10
75.000000000000014
20
-49.999999999999993
10
-75
20
-49.999999999999986
10
-74.999999999999986
20
50.000000000000014
0
LINE
5
102
100
AcDbEntity
8
0
100
AcDbLine
10
-78.000001162290573
20
-59.999999999999986
30
0
11
-78.000001162290573
21
-57.449999999999982
31
0
0
LINE
5
103
100
AcDbEntity
8
0
100
AcDbLine
10
-78.000001162290573
20
-57.449999999999982
30
0
11
-88.000001311302185
21
-57.449999999999982
31
0
0
LINE
5
104
100
AcDbEntity
8
0
100
AcDbLine
10
-88.000001311302185
20
-57.449999999999982
30
0
11
-88.000001311302185
21
-59.999999999999986
31
0
0
LWPOLYLINE
5
105
100
AcDbEntity
8
0
100
AcDbPolyline
90
4
70
1
43
0.0
10
-88.000001311302185
20
-52.449999999999982
10
-78.000001162290573
20
-52.449999999999982
10
-78.000001162290573
20
-45.449999999999982
10
-88.000001311302185
20
-45.449999999999982
0
LWPOLYLINE
5
106
100
AcDbEntity
8
0
100
AcDbPolyline
90
4
70
1
43
0.0
10
-88.000001311302185
20
-33.449999999999982
10
-88.000001311302185
20
-40.449999999999982
10
-78.000001162290573
20
-40.449999999999982
10
-78.000001162290573
20
-33.449999999999982
0
LWPOLYLINE
5
107
100
AcDbEntity
8
0
100
AcDbPolyline
90
4
70
1
43
0.0
10
-88.000001311302185
20
-21.449999999999978
10
-88.000001311302185
20
-28.449999999999982
10
-78.000001162290573
20
-28.449999999999982
10
-78.000001162290573
20
-21.449999999999978
0
LWPOLYLINE
5
108
100
AcDbEntity
8
0
100
AcDbPolyline
90
4
70
1
43
0.0
10
-88.000001311302185
20
-16.449999999999978
10
-78.000001162290573
20
-16.449999999999978
10
-78.000001162290573
20
-9.4499999999999762
10
-88.000001311302185
20
-9.4499999999999762
0
LWPOLYLINE
5
109
100
AcDbEntity
8
0
100
AcDbPolyline
90
4
70
1
43
0.0
10
-88.000001311302185
20
-4.4499999999999762
10
-78.000001162290573
20
-4.4499999999999762
10
-78.000001162290573
20
2.5500000000000256
10
-88.000001311302185
20
2.5500000000000256
0
LWPOLYLINE
5
110
100
AcDbEntity
8
0
100
AcDbPolyline
90
4
70
1
43
0.0
10
-88.000001311302185
20
14.550000000000027
10
-88.000001311302185
20
7.5500000000000256
10
-78.000001162290573
20
7.5500000000000256
10
-78.000001162290573
20
14.550000000000027
0
LWPOLYLINE
5
111
100
AcDbEntity
8
0
100
AcDbPolyline
90
4
70
1
43
0.0
10
-88.000001311302185
20
26.550000000000029
10
-88.000001311302185
20
19.550000000000026
10
-78.000001162290573
20
19.550000000000026
10
-78.000001162290573
20
26.550000000000029
0
LWPOLYLINE
5
112
100
AcDbEntity
8
0
100
AcDbPolyline
90
4
70
1
43
0.0
10
-78.000001162290573
20
31.550000000000029
10
-78.000001162290573
20
38.550000000000033
10
-88.000001311302185
20
38.550000000000033
10
-88.000001311302185
20
31.550000000000029
0
LWPOLYLINE
5
113
100
AcDbEntity
8
0
100
AcDbPolyline
90
4
70
1
43
0.0
10
-88.000001311302185
20
50.550000000000033
10
-88.000001311302185
20
43.550000000000033
10
-78.000001162290573
20
43.550000000000033
10
-78.000001162290573
20
50.550000000000033
0
LINE
5
114
100
AcDbEntity
8
0
100
AcDbLine
10
-78.000001162290573
20
60.000000000000014
30
0
11
-78.000001162290573
21
57.450000000000017
31
0
0
LINE
5
115
100
AcDbEntity
8
0
100
AcDbLine
10
-78.000001162290573
20
57.450000000000017
30
0
11
-88.000001311302185
21
57.450000000000017
31
0
0
LINE
5
116
100
AcDbEntity
8
0
100
AcDbLine
10
-88.000001311302185
20
57.450000000000017
30
0
11
-88.000001311302185
21
60.000000000000014
31
0
0
LWPOLYLINE
5
117
100
AcDbEntity
8
0
100
AcDbPolyline
90
4
70
1
43
0.0
10
78.000001162290573
20
-45.449999999999982
10
88.000001311302185
20
-45.449999999999982
10
88.000001311302185
20
-52.449999999999982
10
78.000001162290573
20
-52.449999999999982
0
LWPOLYLINE
5
118
100
AcDbEntity
8
0
100
AcDbPolyline
90
4
70
1
43
0.0
10
78.000001162290573
20
31.550000000000029
10
78.000001162290573
20
38.55000000000004
10
88.000001311302185
20
38.55000000000004
10
88.000001311302185
20
31.550000000000029
0
LWPOLYLINE
5
119
100
AcDbEntity
8
0
100
AcDbPolyline
90
4
70
1
43
0.0
10
78.000001162290573
20
50.550000000000033
10
88.000001311302185
20
50.550000000000033
10
88.000001311302185
20
43.55000000000004
10
78.000001162290573
20
43.55000000000004
0
LWPOLYLINE
5
120
100
AcDbEntity
8
0
100
AcDbPolyline
90
4
70
1
43
0.0
10
88.000001311302185
20
14.550000000000018
10
88.000001311302185
20
7.5500000000000256
10
78.000001162290573
20
7.5500000000000256
10
78.000001162290573
20
14.550000000000018
0
LWPOLYLINE
5
121
100
AcDbEntity
8
0
100
AcDbPolyline
90
4
70
1
43
0.0
10
88.000001311302185
20
-9.4499999999999762
10
88.000001311302185
20
-16.449999999999978
10
78.000001162290573
20
-16.449999999999978
10
78.000001162290573
20
-9.4499999999999762
0
LWPOLYLINE
5
122
100
AcDbEntity
8
0
100
AcDbPolyline
90
4
70
1
43
0.0
10
88.000001311302185
20
2.5500000000000256
10
88.000001311302185
20
-4.4499999999999762
10
78.000001162290573
20
-4.4499999999999762
10
78.000001162290573
20
2.5500000000000256
0
LWPOLYLINE
5
123
100
AcDbEntity
8
0
100
AcDbPolyline
90
4
70
1
43
0.0
10
88.000001311302185
20
-21.449999999999978
10
88.000001311302185
20
-28.449999999999982
10
78.000001162290573
20
-28.449999999999982
10
78.000001162290573
20
-21.449999999999978
0
LWPOLYLINE
5
124
100
AcDbEntity
8
0
100
AcDbPolyline
90
4
70
1
43
0.0
10
88.000001311302185
20
-33.449999999999982
10
88.000001311302185
20
-40.449999999999982
10
78.000001162290573
20
-40.449999999999982
10
78.000001162290573
20
-33.449999999999982
0
LINE
5
125
100
AcDbEntity
8
0
100
AcDbLine
10
88.000001311302185
20
-57.449999999999982
30
0
11
88.000001311302185
21
-59.999999999999986
31
0
0
LINE
5
126
100
AcDbEntity
8
0
100
AcDbLine
10
78.000001162290573
20
57.45000000000001
30
0
11
88.000001311302185
21
57.45000000000001
31
0
0
LINE
5
127
100
AcDbEntity
8
0
100
AcDbLine
10
78.000001162290573
20
-57.449999999999982
30
0
11
88.000001311302185
21
-57.449999999999982
31
0
0
LINE
5
128
100
AcDbEntity
8
0
100
AcDbLine
10
78.000001162290573
20
-59.999999999999986
30
0
11
78.000001162290573
21
-57.449999999999982
31
0
0
LWPOLYLINE
5
129
100
AcDbEntity
8
0
100
AcDbPolyline
90
4
70
1
43
0.0
10
88.000001311302185
20
26.550000000000029
10
88.000001311302185
20
19.550000000000018
10
78.000001162290573
20
19.550000000000018
10
78.000001162290573
20
26.550000000000029
0
LINE
5
130
100
AcDbEntity
8
0
100
AcDbLine
10
78.000001162290573
20
60.000000000000014
30
0
11
78.000001162290573
21
57.45000000000001
31
0
0
LINE
5
131
100
AcDbEntity
8
0
100
AcDbLine
10
88.000001311302185
20
57.45000000000001
30
0
11
88.000001311302185
21
60.000000000000014
31
0
0
ENDSEC
0
SECTION
2
OBJECTS
0
DICTIONARY
5
C
100
AcDbDictionary
3
ACAD_GROUP
350
D
3
ACAD_MLINESTYLE
350
17
0
DICTIONARY
5
D
100
AcDbDictionary
0
DICTIONARY
5
1A
330
C
100
AcDbDictionary
0
DICTIONARY
5
17
100
AcDbDictionary
0
ENDSEC
0
EOF
